<!DOCTYPE svg PUBLIC "-//W3C//DTD SVG 1.1//EN" "http://www.w3.org/Graphics/SVG/1.1/DTD/svg11.dtd">
<!-- Uploaded to: SVG Repo, www.svgrepo.com, Transformed by: SVG Repo Mixer Tools -->
<svg fill="#ffffff" version="1.1" id="Capa_1" xmlns="http://www.w3.org/2000/svg" xmlns:xlink="http://www.w3.org/1999/xlink" width="800px" height="800px" viewBox="0 0 95.398 95.398" xml:space="preserve">
<g id="SVGRepo_bgCarrier" stroke-width="0"/>
<g id="SVGRepo_tracerCarrier" stroke-linecap="round" stroke-linejoin="round"/>
<g id="SVGRepo_iconCarrier"> <g> <g> <path d="M42.3,22.849c0.107,0.013,0.213,0.026,0.316,0.039c0.001,0,0.001,0,0.002,0C42.517,22.875,42.407,22.862,42.3,22.849z"/> <path d="M37.222,22.604L37.222,22.604l1.781-0.579c0.016-0.005,0.031-0.011,0.046-0.018c-0.001,0-0.002,0.001-0.003,0.001 c-0.014,0.006-0.028,0.012-0.042,0.017L37.222,22.604z"/> <path d="M36.43,28.039c0,0.004,0,0.008,0,0.011c0.006,0.165,0.101,0.319,0.238,0.41C36.532,28.367,36.438,28.201,36.43,28.039z"/> <path d="M2.31,32.855c-0.077-0.368-0.137-0.75-0.183-1.144c0,0,0,0,0-0.001C2.172,32.105,2.232,32.487,2.31,32.855z"/> <path d="M37.744,23.595c0.107-0.103,0.318-0.247,0.318-0.394c0-0.001,0-0.002,0-0.003c0,0.146-0.212,0.28-0.317,0.382 c-0.076,0.073-0.3,0.139-0.384,0.218c-0.004,0.004-0.008,0.007-0.011,0.011c-0.021,0.023-0.042,0.04-0.064,0.041 c0.028-0.001,0.124-0.019,0.146-0.043C37.506,23.724,37.665,23.671,37.744,23.595z"/> <path d="M95.251,55.511l-2.387-2.128c1.5-1.625,2.043-3.709,1.707-6.508c-0.312-2.597-1.689-4.428-3.982-5.295 c-1.152-0.436-2.454-0.556-3.46-0.611c-1.002-0.056-2.006-0.054-3.05-0.044c1.377-0.725,2.609-1.625,3.479-3.205 c0.051-0.092,0.069-0.196,0.059-0.296c-0.011-0.1-0.052-0.197-0.122-0.276c-0.14-0.158-0.363-0.211-0.56-0.134 c-0.276,0.11-0.548,0.202-0.818,0.284c-0.085,0.026-0.17,0.045-0.255,0.068c-0.189,0.052-0.378,0.1-0.564,0.139 c-0.091,0.019-0.182,0.034-0.272,0.05c-0.193,0.034-0.386,0.063-0.576,0.084c-0.075,0.008-0.15,0.016-0.225,0.023 c-0.242,0.021-0.482,0.033-0.721,0.035c-0.025,0-0.053,0.002-0.079,0.002c-0.316-0.001-0.631-0.017-0.94-0.048 c-0.011-0.001-0.021-0.003-0.032-0.004c-0.285-0.03-0.568-0.072-0.848-0.124c-0.048-0.009-0.096-0.017-0.143-0.027 c-0.571-0.114-1.136-0.27-1.695-0.458c-0.079-0.026-0.157-0.054-0.235-0.081c-0.208-0.073-0.417-0.15-0.625-0.231 c-0.072-0.028-0.145-0.055-0.217-0.084c-0.26-0.104-0.521-0.212-0.781-0.325c-0.087-0.038-0.175-0.077-0.262-0.116 c-0.193-0.085-0.388-0.172-0.581-0.26c-0.1-0.045-0.198-0.09-0.297-0.136c-0.241-0.111-0.482-0.223-0.725-0.336 c-0.011-0.005-0.021-0.01-0.031-0.015c-0.002-0.001-0.005-0.002-0.008-0.003c2.407-0.117,4.879-0.288,7.136-1.621 c1.114-0.659,1.707-1.617,2.18-2.553c0.078-0.155,0.07-0.34-0.021-0.488c-0.136-0.221-0.477-0.237-0.624-0.245l-0.113-0.004 c-0.011,0-0.027,0.005-0.039,0.006c-0.034,0.003-0.07,0.008-0.109,0.017c-0.064,0.013-0.132,0.028-0.2,0.073 c-3.807,2.475-7.73,2.812-11.998,1.027c-1.555-0.65-3.011-1.012-4.43-1.103c-0.192-0.012-0.384,0.014-0.575,0.047 c0.032-0.018,0.064-0.036,0.098-0.054c0.159,0.005,0.317-0.003,0.478,0.008c-0.16-0.011-0.315-0.004-0.475-0.009 c0.103-0.056,0.206-0.107,0.309-0.132c0.122-0.03,0.246-0.148,0.367-0.175c0.463-0.105,0.923-0.231,1.382-0.3l0.968-0.16 c0.48-0.069,0.965-0.148,1.452-0.225c1.459-0.233,2.937-0.547,4.368-1.145c1.361-0.569,2.192-1.449,3.011-2.725 c0.012-0.017,0.021-0.033,0.032-0.05c0.003-0.004,0.005-0.009,0.008-0.013c0.089-0.14,0.18-0.29,0.27-0.44 c0.026-0.045,0.053-0.086,0.081-0.132c0.034-0.059,0.03-0.125,0.039-0.19c0.006-0.043,0.03-0.084,0.025-0.126l0,0 c-0.013-0.107-0.061-0.21-0.142-0.29c-0.16-0.162-0.41-0.193-0.606-0.08c-0.136,0.08-0.238,0.136-0.32,0.18 c-0.154,0.084-0.266,0.144-0.372,0.242c-0.16,0.146-0.323,0.28-0.488,0.402c-1.155,0.852-2.441,1.108-4.008,0.808 c-0.39-0.075-0.79-0.172-1.219-0.316c-0.671-0.226-1.339-0.464-2.007-0.704c-0.093-0.033-0.187-0.066-0.279-0.1 c-2.598-0.93-5.283-1.888-8.176-1.993c-0.354-0.011-0.706-0.038-1.05-0.038h-0.03l1.202-2.293 c0.105-0.204,0.059-0.439-0.114-0.591l-0.281-0.239c-0.092-0.081-0.208-0.118-0.323-0.119c-0.056-0.001-0.113,0.009-0.166,0.027 c-0.057,0.018-0.112,0.045-0.162,0.085c-1.875,1.494-4.112,2.416-6.647,2.739c-1.707,0.218-3.479,0.307-5.19,0.393 c-0.241,0.012-0.482,0.024-0.723,0.037c-0.001,0.001-0.003,0.001-0.004,0.002l0,0c0.001-0.001,0.003-0.001,0.004-0.002l0,0 c4.549-2.469,4.655-2.644,4.804-4.187c0.018-0.179-0.062-0.354-0.209-0.457c-0.107-0.075-0.235-0.087-0.36-0.069 c-0.104-0.022-0.212-0.022-0.312,0.025c-1.579,0.741-2.881,1.321-3.982,1.773c-1.184,0.486-2.887,1.12-4.273,1.374 c-0.708,0.128-1.639,0.121-2.801,0.082c-0.554-0.019-1.155-0.04-1.82-0.04c-0.081,0-0.157,0.019-0.224,0.053 c-0.024-0.111-0.085-0.21-0.172-0.28c0.323-0.27,0.646-0.536,0.969-0.802c1.234-1.017,2.511-2.068,3.661-3.207 c0.818-0.81,1.491-1.75,2.014-2.814c0.163-0.331,0.306-0.679,0.44-1.034c0.295-0.785,0.525-1.623,0.677-2.52 c0.032-0.189-0.047-0.379-0.202-0.49c-0.078-0.056-0.169-0.087-0.26-0.093c-0.092-0.006-0.185,0.014-0.269,0.06 c-0.573,0.311-1.141,0.605-1.701,0.896c-1.239,0.645-2.41,1.253-3.545,1.973c-3.042,1.926-6.386,2.862-10.472,3.674 c-2.107,0.418-4.729,0.94-6.75,2.722c-0.064,0.057-0.136,0.11-0.208,0.16c-0.053-0.15-0.107-0.299-0.161-0.448 c-0.267-0.735-0.519-1.43-0.632-2.129c-0.11-0.683-0.083-1.392-0.056-2.143c0.013-0.338,0.025-0.676,0.025-1.012 c0-0.249-0.183-0.459-0.429-0.495c-0.242-0.04-0.48,0.114-0.551,0.353c-0.892,3.022-2.74,5.455-4.556,7.687 c-0.126,0.155-0.148,0.371-0.055,0.548c0.093,0.177,0.276,0.276,0.483,0.266l1.828-0.147l0.139,1.564 c0.012,0.132,0.076,0.254,0.177,0.339c0.102,0.085,0.154,0.126,0.286,0.114l0.04-0.173V23.85h0.159 c-0.003,0-0.006,0.186-0.009,0.198c-0.01,0.038-0.025,0.087-0.037,0.129l-0.078,0.007l0.078-0.007 c-0.057,0.207-0.132,0.446-0.21,0.638c-0.177,0.436-0.355,0.908-0.352,1.362c0-0.004,0.001-0.008,0.001-0.012 c0,0.14,0.014,0.278,0.055,0.413c0.085,0.284,0.119,0.55,0.116,0.806c0-0.119-0.008-0.24-0.026-0.365 c0.117,0.9-0.259,1.648-0.688,2.478c-0.161,0.311-0.321,0.632-0.457,0.954c-0.127,0.302-0.169,0.612-0.209,0.907 c-0.026,0.194-0.05,0.393-0.11,0.575c-0.067,0.203-0.225,0.68-0.451,0.869c-0.208,0.174-0.502,0.298-0.842,0.441 c-0.014,0.006-0.029,0.012-0.043,0.018c0.001,0.003,0.003,0.005,0.004,0.008c-0.001-0.003-0.003-0.005-0.004-0.008l0,0 c-0.069-0.153,0.031-0.317-0.074-0.478c0.002-0.008,0.177-0.015,0.177-0.024c0-0.001,0-0.002,0-0.004c0-0.002,0-0.003,0-0.005 c0-0.416-0.52-0.71-1-0.956v-0.826c0-0.318-0.214-0.49-0.635-0.512l-0.124-0.006c-0.098-0.011-0.189,0.012-0.271,0.052 c-0.03,0.015-0.051,0.042-0.077,0.062c-0.037,0.028-0.08,0.049-0.108,0.087c-0.406-2.12,0.114-4.132,1.588-6.228l0.089-0.125 c0.16-0.225,0.108-0.536-0.116-0.697c-0.113-0.081-0.248-0.107-0.375-0.086c-0.135,0.016-0.263,0.082-0.348,0.201 c-0.034,0.047-0.067,0.093-0.1,0.14L14.3,25.661l-0.003,0.004L14,23.875l-0.287-1.774c-0.033-0.204-0.189-0.367-0.392-0.409 c0,0,0,0-0.001-0.001c-0.202-0.042-0.411,0.046-0.522,0.221l-0.525,0.827c-0.368,0.583-0.706,1.118-1.057,1.646 c-0.293,0.441-0.606,0.874-0.919,1.306c-0.658,0.91-1.339,1.85-1.842,2.881c-0.058,0.119-0.103,0.235-0.156,0.353 c-0.065,0.145-0.135,0.292-0.193,0.435c-0.054,0.134-0.097,0.265-0.144,0.397c-0.046,0.13-0.096,0.26-0.136,0.389 c-0.041,0.132-0.073,0.261-0.107,0.392c-0.033,0.126-0.067,0.253-0.094,0.378c-0.028,0.128-0.048,0.254-0.068,0.381 c-0.02,0.124-0.04,0.248-0.054,0.371c-0.014,0.124-0.023,0.247-0.03,0.37c-0.005,0.122-0.01,0.244-0.011,0.366 c-0.001,0.12,0.002,0.24,0.008,0.358c0.006,0.122,0.016,0.244,0.029,0.365c0.012,0.116,0.025,0.231,0.044,0.345 c0.02,0.124,0.046,0.247,0.074,0.37c0.024,0.109,0.047,0.219,0.078,0.327c0.008,0.03,0.012,0.06,0.021,0.089l-0.027,0.001 c-0.299-0.077-0.627,0.166-0.627,0.486c0,0.009,0,0.018,0,0.026l0,0c0,0.012,0,0.023,0.001,0.034L4.826,32.87l-1.88-1.625 c-0.078-0.068-0.173-0.108-0.271-0.119c-0.057-0.006-0.112,0.019-0.168,0.032c-0.041,0.01-0.084,0.003-0.123,0.023 c-0.182,0.096-0.287,0.294-0.263,0.499c0.001,0.011,0.004,0.02,0.005,0.031c-0.001-0.011-0.004-0.02-0.005-0.031l0,0 c0.001,0.011,0.004,0.02,0.005,0.031c0.252,2.149,0.952,3.901,2.173,5.388c0.175,0.213,0.361,0.421,0.558,0.624 C4.771,37.725,4.685,37.728,4.6,37.73c-0.361,0.01-0.711,0.02-1.058,0.06c-0.559,0.065-1.098,0.212-1.619,0.354 c-0.22,0.06-0.439,0.12-0.66,0.173c-0.261,0.063-0.426,0.322-0.373,0.585l0.067,0.333C1,39.449,1.178,39.61,1.395,39.633 c1.481,0.157,2.928,0.366,4.286,1.04c-2.256,0.174-4.453,0.642-5.643,3.566c-0.081,0.197-0.027,0.423,0.133,0.564 c0.16,0.141,0.392,0.165,0.576,0.06c0.168-0.095,0.309-0.167,0.429-0.23c0.239-0.124,0.428-0.222,0.602-0.373 c0.987-0.859,2.144-0.98,3.749-0.392c0.387,0.142,0.606,0.283,0.67,0.433c0.069,0.161-0.011,0.412-0.089,0.593 C5.914,45.34,5.959,45.84,6,46.281c0.015,0.169,0.031,0.338,0.031,0.5c0,0.234,0.163,0.438,0.392,0.488 c0.233,0.049,0.462-0.065,0.562-0.277c0.17-0.364,0.253-0.761,0.328-1.11c0.083-0.393,0.161-0.763,0.327-0.938 c0.474-0.502,0.886-1.068,1.286-1.616c0.961-1.318,1.87-2.564,3.548-2.898c0.143-0.029,0.294-0.04,0.446-0.037 c0.153,0.003,0.31,0.019,0.464,0.05c0.431,0.088,0.855,0.211,1.311,0.343l0.648,0.184c0.074,0.021,0.152,0.023,0.227,0.009 c0.075-0.014,0.189-0.046,0.251-0.093c0.125-0.096,0.241-0.243,0.241-0.399v-0.373v-0.401c0-2.289,0.805-3.971,2.355-4.999 c2.135-1.416,3.763-3.352,5.327-6.277c0.134-0.251,0.223-0.327,0.227-0.346c0.026,0.017,0.096,0.076,0.197,0.251 c0.29,0.5,0.474,1.112,0.511,1.68c0.031,0.465-0.259,0.949-0.331,1.461c-0.022,0.166-0.286,0.33-0.286,0.495 c0-0.035,0-0.07,0-0.105c0-0.205,0.092-0.388-0.099-0.463c-0.191-0.075-0.299-0.025-0.438,0.125 c-0.272,0.292-0.476,0.584-0.731,0.871c-0.548,0.617-1.038,1.2-1.613,1.702c-1.056,0.921-2.198,1.723-3.188,2.386 c-1.214,0.812-1.097,1.926-0.863,3.092c0.031,0.153,0.134,0.282,0.273,0.351c0.07,0.034,0.148,0.051,0.223,0.051 s0.152-0.018,0.222-0.052c0.374-0.186,0.741-0.357,1.099-0.525c0.788-0.368,1.532-0.716,2.238-1.159 c0.61-0.383,1.287-0.718,1.941-1.042c1.736-0.861,3.531-1.75,4.568-3.64c0.011-0.009,0.055-0.033,0.118-0.05 c0.4-0.112,0.799-0.245,1.198-0.377c0.893-0.297,1.736-0.578,2.584-0.628c0.513-0.031,1.005-0.058,1.478-0.08 c0.204-0.01,0.414-0.017,0.621-0.026c0.287-0.012,0.576-0.025,0.851-0.033c0.221-0.007,0.444-0.012,0.667-0.017 c0.284-0.007,0.567-0.013,0.842-0.016c0.215-0.003,0.429-0.005,0.64-0.006c0.181-0.001,0.365,0.002,0.548,0.003 c0.519,0.003,1.041,0.013,1.569,0.029c0.214,0.007,0.429,0.014,0.64,0.023c0.447,0.02,0.897,0.048,1.349,0.081 c0.218,0.016,0.441,0.028,0.656,0.046c0.446,0.038,0.895,0.089,1.344,0.142c0.188,0.022,0.382,0.039,0.567,0.063 c0.615,0.081,1.232,0.176,1.849,0.289c0.708,0.13,1.419,0.243,2.13,0.355c1.22,0.194,2.481,0.394,3.692,0.679 c2.034,0.479,4.083,1.07,6.065,1.642l1.287,0.371c0.566,0.162,1.124,0.359,1.681,0.557c0.378,0.134,0.757,0.268,1.139,0.392 c0.347,0.112,0.7,0.198,1.056,0.284c0.93,0.224,1.809,0.436,2.468,1.153c0.356,0.388,0.88,0.57,1.341,0.731 c0.115,0.04,0.229,0.08,0.338,0.122c0.352,0.136,0.708,0.255,1.066,0.375c0.458,0.153,0.917,0.305,1.357,0.497 c0.954,0.415,1.901,0.846,2.85,1.278c1.057,0.482,2.113,0.964,3.182,1.422c2.092,0.899,4.071,2.105,5.985,3.272 c1.005,0.613,2.01,1.226,3.036,1.8c1.995,1.118,2.708,2.689,3.102,4.833c-0.976,0.307-1.229,1.145-1.374,1.626 c-0.033,0.109-0.061,0.211-0.099,0.291c-0.053,0.11-0.062,0.236-0.027,0.354c0.066,0.225,0.136,0.41,0.196,0.567 c0.045,0.118,0.105,0.248,0.111,0.249c-0.158,0.494-0.098,0.936-0.044,1.323c0.02,0.14,0.039,0.279,0.046,0.421 c0.08,1.625,1.199,2.522,2.096,3.24c0.494,0.396,1.174,0.943,2.015,0.943c0.156,0,0.318-0.021,0.484-0.062 c0.154-0.039,0.313-0.095,0.478-0.178c0.221-0.11,0.328-0.367,0.25-0.603c-0.846-2.582-0.479-4.883,0.975-6.247l2.356,1.836 c0.112,0.086,0.252,0.123,0.395,0.099c0.139-0.023,0.261-0.105,0.337-0.226l0.162-0.263c0.109-0.18,0.035-0.449-0.104-0.623 L95.251,55.511z M41.127,17.312c0,0.01,0.006,0.019,0.006,0.029c-0.007,0.159-0.089,0.212-0.222,0.3 C41.038,17.557,41.115,17.459,41.127,17.312z M41.075,18.225c0.044-0.037,0.091-0.052,0.135-0.089 c0.093-0.08,0.183-0.149,0.275-0.229c0.552-0.479,1.091-0.957,1.608-1.469c0.76-0.752,1.365-1.645,1.845-2.647 c0.32-0.667,0.594-1.372,0.788-2.145l0,0c-0.193,0.774-0.468,1.48-0.788,2.148c-0.48,1.002-1.085,1.898-1.845,2.65 c-0.517,0.512-1.056,0.996-1.608,1.475c-0.092,0.08-0.182,0.161-0.275,0.24c-0.044,0.037-0.091,0.075-0.135,0.112 c-0.056-0.089-0.14-0.194-0.236-0.26C40.933,18.064,41.019,18.137,41.075,18.225z M39.323,16.75 c-0.007,0.093-0.041,0.184-0.098,0.26h-0.001C39.281,16.934,39.314,16.844,39.323,16.75z M2.179,42.85L2.179,42.85L2.179,42.85 L2.179,42.85z M12.982,23.861l0.508,3.322l-0.518-3.299C12.976,23.877,12.979,23.869,12.982,23.861z M10.431,27.231 c0.219-0.316,0.444-0.632,0.677-0.955c0.108-0.149,0.227-0.299,0.343-0.448c-0.115,0.157-0.226,0.316-0.343,0.477 c-0.233,0.321-0.459,0.623-0.678,0.938c-0.009,0.012-0.017,0.022-0.025,0.032c-0.003,0.003-0.008,0.005-0.011,0.008 C10.407,27.266,10.418,27.249,10.431,27.231z M8.813,34.035c0.026,0.085,0.08,0.169,0.14,0.254 c0.008-0.249,0.008-0.499,0.014-0.748c0.023-0.994,0.043-2.021,0.187-3c0.055-0.376,0.388-0.799,0.712-1.208l0.244-0.314 c0.222-0.294,0.454-0.551,0.708-0.78l-0.029,0.562c-0.011,0.23,0.136,0.439,0.358,0.504c0.221,0.064,0.459-0.03,0.574-0.229 l0.626-1.082c0.007,0.049,0.015,0.098,0.025,0.147c0.03,0.146-0.016,0.362-0.065,0.591c-0.108,0.504-0.282,1.312,0.511,1.846 c-0.076,0.387-0.15,0.775-0.225,1.164c-0.229,1.199-0.465,2.438-0.77,3.632c-0.076,0.029-0.244,0.069-0.524,0.069 c-0.604,0-1.069-0.177-1.149-0.271c-0.137-0.176-0.352-0.331-0.572-0.476c-0.002-0.008-0.008-0.019-0.011-0.025 c-0.008-0.018-0.021-0.032-0.054-0.037l-0.039-0.007l0,0l-0.413-0.071l0.414,0.071c-0.044-0.028-0.088-0.06-0.131-0.087 l-0.074-0.047c-0.07-0.057-0.155-0.095-0.246-0.107C9.017,34.385,9.008,34.384,9,34.383c-0.069-0.115-0.175-0.231-0.21-0.348 c0.005-0.169-0.037-0.338-0.033-0.507C8.753,33.698,8.817,33.866,8.813,34.035z M7.344,37.618L7.344,37.618 c0.282,0.219,0.585,0.454,0.928,0.719C7.93,38.072,7.626,37.838,7.344,37.618z M8.366,39.796 c-0.001,0.003-0.003,0.005-0.005,0.008c-0.056,0.099-0.119,0.226-0.18,0.353c-0.022,0.046-0.044,0.093-0.065,0.137 C7.467,40.118,7,39.853,6.645,39.455C7.27,39.146,7.8,39.388,8.366,39.796z M10.139,38.68c0,0,0,0.117-0.001,0.117 c-0.765-0.814-1.369-1.947-1.985-1.947h0.001C8.77,36.85,9.373,37.867,10.139,38.68z M9.413,36.948 c-0.041-0.042-0.081-0.085-0.121-0.127l0,0C9.332,36.863,9.372,36.904,9.413,36.948c0.339,0.351,0.697,0.724,1.106,1.158 c0.077,0.081,0.121,0.183,0.132,0.289c-0.012-0.104-0.057-0.205-0.132-0.285C10.108,37.674,9.75,37.3,9.413,36.948z M9.219,35.739 c0.078,0.16,0.156,0.32,0.228,0.493c0.033,0.079,0.044,0.164,0.036,0.247c0.009-0.083-0.003-0.167-0.036-0.246 C9.375,36.059,9.296,35.899,9.219,35.739z M8.096,34.827c0.223,0.495,0.578,0.999,0.827,1.595H8.921 c-0.249-0.597-0.606-1.099-0.828-1.595C8.095,34.827,8.095,34.827,8.096,34.827z M4.61,34.85h0.438 c-0.428-0.166-0.865-0.336-1.284-0.499l0,0c0.42,0.163,0.856,0.333,1.284,0.499c0.004,0.002,0.009,0.003,0.013,0.005l0,0 c0.604,0.235,1.203,0.468,1.814,0.705c-0.611-0.237-1.21-0.47-1.814-0.705c0,0.015,0,0.177,0,0.177l1.859,0.902 c0.063,0.025,0.017,0.082,0.084,0.08c0.044-0.001,0.067-0.003,0.093-0.009c-0.004,0.002-0.007,0.006-0.011,0.008 c-0.062,0.029-0.128,0.045-0.195,0.047c0.067-0.002,0.134-0.018,0.196-0.047c0.004-0.002,0.007-0.006,0.011-0.008 C7.111,36.002,7.123,36,7.144,35.99c0.124-0.058,0.191-0.153,0.234-0.282l0.05-0.182l-0.005-0.003 c0.004-0.012-0.005-0.022-0.002-0.034c0.005-0.019-0.003-0.037,0-0.056c0.011-0.061,0.023-0.122,0.01-0.18 c0.063,0.018,0.135,0.022,0.202,0.013c0.064,0.007,0.148,0.014,0.244,0.021c0.071,0.147,0.147,0.295,0.226,0.448 c0.025,0.049,0.05,0.098,0.076,0.148c-0.192,0.002-0.367,0.115-0.448,0.291c-0.085,0.186-0.049,0.404,0.09,0.552 c0.199,0.212,0.396,0.417,0.596,0.625c-0.096-0.052-0.192-0.105-0.29-0.159c-0.14-0.078-0.28-0.156-0.422-0.231 c-0.062-0.033-0.127-0.05-0.192-0.056c-0.177-0.016-0.346,0.07-0.451,0.22v-0.004c-0.826-0.469-1.627-1.041-2.147-1.786 l1.78,0.692c0.063,0.025,0.131,0.036,0.198,0.034c-0.067,0.002-0.134-0.009-0.197-0.034l-1.781-0.692 C4.805,35.177,4.69,35.024,4.61,34.85z M5.438,39.478c-0.365-0.143-0.733-0.263-1.103-0.362c-0.008-0.002-0.017-0.013-0.025-0.015 c-0.377-0.099-0.755-0.251-1.133-0.251h0.001c0.377,0,0.755,0.152,1.131,0.251c0.008,0.002,0.017,0.008,0.025,0.011 c0.37,0.098,0.738,0.218,1.103,0.361c0.14,0.055,0.278,0.116,0.417,0.179c0.534,0.749,1.227,1.112,1.875,1.31 c0.019,0.083,0.027,0.171,0.001,0.257l0,0c0.016-0.078,0.016-0.166-0.001-0.239c-0.648-0.199-1.341-0.569-1.875-1.318 C5.715,39.598,5.578,39.533,5.438,39.478z M4.486,41.824c0-0.002,0-0.003,0.001-0.005c-0.038,0.007-0.074,0.018-0.112,0.025 c-0.124,0.024-0.245,0.052-0.365,0.081c0.115-0.03,0.029-0.057,0.152-0.081c0.03-0.006-0.049-0.014-0.083-0.02 c0.287-0.006,0.433-0.011,0.509-0.017C4.555,41.813,4.52,41.818,4.486,41.824z M5.388,41.618 c-0.153,0.029-0.306,0.058-0.459,0.083c-0.048,0.008-0.085,0.037-0.119,0.067c-0.051,0.007-0.1,0.017-0.149,0.026 c-0.011-0.009-0.117-0.018-0.063-0.026c0.034-0.03,0.177-0.059,0.225-0.067c0.153-0.025,0.359-0.055,0.512-0.083 c0.434-0.083,0.909-0.168,1.362-0.173c0.003,0,0.004,0.002,0.007,0.002C6.257,41.454,5.815,41.536,5.388,41.618z M5.873,42.927 c-0.083-0.031-0.176-0.06-0.265-0.089C5.696,42.868,5.789,42.897,5.873,42.927c0.2,0.073,0.417,0.172,0.619,0.299l0,0 C6.289,43.1,6.073,43.001,5.873,42.927z M6.491,43.219c-0.004-0.004-0.009-0.008-0.014-0.011l0.732,0.099 c0.185,0.026,0.363-0.052,0.471-0.201c0.05-0.069,0.077-0.149,0.087-0.231c-0.002,0.091-0.025,0.181-0.087,0.266 c-0.107,0.149-0.285,0.209-0.47,0.183L6.491,43.219z M12.279,39.454c-2.062,0.411-3.129,1.872-4.162,3.287 c-0.323,0.443-0.632,0.865-0.966,1.252c-0.01-0.03-0.021-0.059-0.034-0.088c-0.016-0.037-0.045-0.062-0.064-0.096 c0.019,0.034,0.048,0.059,0.064,0.096c0.012,0.028,0.023,0.057,0.034,0.087c0.334-0.388,0.643-0.811,0.966-1.254 c1.032-1.416,2.099-2.879,4.162-3.291c0.417-0.083,0.869-0.061,1.303,0.027C13.145,39.386,12.681,39.375,12.279,39.454z M13.812,30.71c-0.035-0.199-0.069-0.398-0.095-0.597c0-0.001,0.001-0.001,0.001-0.002c0.026,0.198,0.059,0.397,0.094,0.596 C13.812,30.708,13.812,30.709,13.812,30.71z M13.729,28.745c-0.028,0.41-0.026,0.823,0.012,1.238 c-0.001-0.002-0.004-0.002-0.005-0.004C13.704,29.571,13.699,29.158,13.729,28.745z M13.916,27.5 c-0.008-0.002-0.016-0.028-0.023-0.03c-0.198-0.046-0.348-0.219-0.38-0.42l-0.522-3.207c0.016-0.035,0.034-0.07,0.044-0.105 l0.508,3.299c0.032,0.201,0.167,0.361,0.365,0.407c0.007,0.002,0.008,0.003,0.015,0.005C13.918,27.466,13.918,27.483,13.916,27.5z M14.493,32.581c-0.257-0.657-0.431-1.301-0.431-1.935v-0.001C14.062,31.28,14.235,31.924,14.493,32.581 c0.075,0.193,0.14,0.308,0.348,0.309C14.632,32.889,14.567,32.774,14.493,32.581z M18.925,33.056L18.925,33.056 c0.101-0.085,0.2-0.174,0.299-0.262C19.125,32.882,19.026,32.972,18.925,33.056z M48.708,23.883 c-0.215,0.011-0.43,0.022-0.646,0.033C48.062,23.905,48.492,23.894,48.708,23.883z M47.992,23.923 c-0.091-0.153-0.259-0.252-0.443-0.245C47.732,23.67,47.9,23.77,47.992,23.923z M47.444,23.962 c0.04-0.001,0.079-0.003,0.119-0.004c-0.312,0.09-0.624,0.865-0.937,0.957C46.899,24.834,47.171,24.186,47.444,23.962z M45.855,24.849c-0.045,0.002-0.089,0.01-0.129,0.052v-0.002C45.768,24.859,45.811,24.85,45.855,24.849z M35.335,25.32 l-0.006,0.001c0.915-0.307,2.443-0.542,3.816-0.726l-0.214,0.041C37.619,24.813,36.195,25.036,35.335,25.32z M35.442,25.876 c-0.002,0.001-0.004,0.002-0.007,0.003c-0.161-0.052-0.352-0.114-0.542-0.176c-0.006-0.077-0.113-0.154-0.157-0.231l0.157-0.025 c0.004,0.082,0.004,0.168,0.01,0.248C35.095,25.758,35.281,25.824,35.442,25.876z M34.772,25.04 c-0.036,0.009-0.062,0.027-0.09,0.044c0.025-0.011,0.039-0.037,0.066-0.044c2.732-0.695,5.513-1.007,8.447-1.181l-0.031,0.006 C40.26,24.039,37.479,24.351,34.772,25.04z M28.078,29.017c0.015,0.002,0.03,0.004,0.044,0.004c0.07,0,0.138-0.029,0.186-0.083 c0.298-0.331,0.589-0.668,0.88-1.007c0.64-0.744,1.302-1.513,2.028-2.175c1.076-0.98,2.306-1.935,3.761-2.918 c0.221-0.149,0.449-0.292,0.673-0.439c-0.004,0.071,0.012,0.14,0.034,0.205c-0.025-0.063-0.039-0.131-0.034-0.201 c-0.224,0.147-0.452,0.288-0.673,0.438c-1.455,0.983-2.686,1.936-3.761,2.917c-0.727,0.663-1.388,1.431-2.028,2.175 c-0.291,0.338-0.582,0.676-0.88,1.007c-0.048,0.053-0.115,0.082-0.186,0.082C28.106,29.021,28.091,29.019,28.078,29.017 l-0.333-0.06L28.078,29.017z M27.594,25.618c0.109-0.034,0.211-0.061,0.306-0.082l0,0C27.806,25.557,27.703,25.585,27.594,25.618z M35.841,22.835c-0.025-0.018-0.037-0.046-0.058-0.068c-0.009-0.01-0.012-0.023-0.02-0.033 C35.79,22.768,35.807,22.808,35.841,22.835l0.057,0.041l-0.012,0.006l-0.017-0.015c0.003-0.002,0.006-0.003,0.009-0.005 L35.841,22.835z M39.062,22.003c-0.004,0.002-0.009,0.003-0.013,0.005C39.053,22.006,39.058,22.005,39.062,22.003v0.063l0,0 c0,0.26,0.199,0.476,0.458,0.498c0.335,0.028,0.647,0.056,0.942,0.085c0.104,0.01,0.196,0.02,0.295,0.03 c0.184,0.018,0.369,0.037,0.54,0.055c0.104,0.011,0.198,0.022,0.298,0.033c0.158,0.018,0.317,0.036,0.465,0.053 c0.083,0.01,0.161,0.001,0.241,0.011c0.106,0.013,0.217,0.02,0.319,0.02c-0.001,0-0.001,0-0.002,0c0.066,0,0.136,0.036,0.2,0.044 l-0.062,0.011c-0.046-0.006-0.093-0.011-0.138-0.017c-1.228,0.233-2.443,0.467-3.657,0.7c-0.558,0.107-1.117,0.214-1.676,0.322 c-0.001,0.001-0.001,0.001-0.002,0.002l-0.043,0.008c0.016-0.017,0.03-0.07,0.045-0.07h0.001c-0.001,0-0.005,0-0.005,0 c0.023,0,0.046-0.02,0.068-0.044c0.003-0.003,0.009-0.006,0.012-0.009c0.073-0.078,0.145-0.146,0.22-0.218 c0.106-0.103,0.162-0.239,0.152-0.387c-0.005-0.074-0.027-0.141-0.062-0.205c-0.035-0.064-0.083-0.119-0.144-0.163l-0.305-0.221 h-0.001l-0.002-0.001l1.784-0.579c0.015-0.005,0.029-0.01,0.043-0.016C39.052,22.006,39.057,22.005,39.062,22.003z M36.76,16.22 c0.198-0.069,0.389-0.146,0.583-0.219c0.176-0.066,0.354-0.129,0.528-0.198c-0.174,0.069-0.352,0.132-0.528,0.198 C37.148,16.074,36.958,16.152,36.76,16.22L36.76,16.22z M36.831,16.636c-0.016,0.082-0.053,0.159-0.106,0.224l0,0 C36.777,16.796,36.814,16.718,36.831,16.636z M20.282,22.345l-0.22-0.76l0,0l0.218,0.735c0.035-0.03,0.093-0.047,0.146-0.064 l0.002,0.025C20.369,22.298,20.314,22.318,20.282,22.345z M20.564,22.247c-0.048,0.008-0.093,0.019-0.137,0.032l-0.002-0.025 c0.102-0.035,0.215-0.058,0.304-0.049c0.007,0.001,0.014,0.004,0.021,0.005C20.686,22.212,20.624,22.223,20.564,22.247z M23.078,20.908c-0.146-0.052-0.26-0.169-0.308-0.317c-0.112-0.344-0.233-0.68-0.354-1.009c-0.283-0.781-0.551-1.518-0.679-2.311 c-0.033-0.206-0.056-0.413-0.07-0.62c-0.765,1.548-1.734,2.931-2.744,4.233l-0.336-0.034h0.038h0.019 c1.104-1,2.183-2.705,3.014-4.387c0.014,0.207,0.041,0.508,0.074,0.714c0.128,0.793,0.398,1.577,0.682,2.358 c0.12,0.33,0.243,0.688,0.355,1.033c0.048,0.148,0.162,0.276,0.309,0.329c0.145,0.051,0.308,0.039,0.439-0.045l0.155-0.088 c0.022-0.013,0.053-0.031,0.078-0.045c0.848-0.985,1.876-1.919,3.443-2.282c2.117-0.491,4.243-1.12,6.298-1.729 c0.885-0.262,1.77-0.524,2.658-0.777c0.13-0.04,0.263,0.035,0.306,0.161l0.07,0.21l0.054,0.162l-0.054-0.161l-0.07-0.21 c-0.043-0.126-0.175-0.201-0.306-0.161c-0.888,0.252-1.772,0.515-2.658,0.777c-2.056,0.609-4.181,1.239-6.298,1.729 c-1.566,0.363-2.595,1.298-3.443,2.283c-0.024,0.014-0.055,0.034-0.078,0.047l-0.154,0.091 C23.386,20.941,23.223,20.958,23.078,20.908z M23.813,26.997c-0.055,0.01-0.112,0.072-0.166,0.091 c0.053-0.02,0.11-0.112,0.166-0.121c0.049-0.008,0.095-0.117,0.145-0.117C23.909,26.85,23.862,26.989,23.813,26.997z M26.062,29.955c0-0.715-0.476-1.486-0.84-2.114c-0.115-0.198-0.246-0.34-0.38-0.459c0.139,0.111,0.272,0.243,0.38,0.429 c0.364,0.629,0.84,1.416,0.84,2.131C26.062,29.947,26.062,29.951,26.062,29.955z M25.651,25.403l0.311-0.638 c0.061-0.125,0.067-0.271,0.016-0.401c-0.051-0.13-0.154-0.233-0.284-0.284l-0.264-0.103l0.213-0.493 c0.084-0.195,0.036-0.423-0.121-0.567l-0.196-0.179c-0.192-0.175-0.489-0.173-0.679,0.005l-0.122,0.114 c0.008-0.012,0.017-0.024,0.024-0.037c0.197-0.293,0.42-0.625,0.546-1.045c0.065-0.217-0.024-0.45-0.216-0.569 c-0.191-0.119-0.44-0.094-0.605,0.061l-0.051,0.048c0.909-1.069,1.785-1.838,3.136-2.151c2.139-0.496,4.366-1.129,6.432-1.741 c0.061-0.015,0.27-0.033,0.27-0.051c0,0.001,0,0.003,0,0.004c0,0.221,0.096,0.401,0.315,0.442c1.147,0.216,1.74,0.211,2.595,0.022 c-0.029,0.14-0.019,0.288,0.07,0.404c0.119,0.155,0.307,0.229,0.498,0.183l0.818-0.189l-3.734,2.489 c-0.224,0.149-0.291,0.448-0.15,0.678l0.158,0.258c0.089,0.145,0.24,0.228,0.398,0.237c-0.158,0.104-0.316,0.21-0.473,0.316 c-1.485,1.003-2.744,1.98-3.847,2.985c-0.76,0.693-1.437,1.479-2.091,2.24c-0.031,0.036-0.062,0.073-0.094,0.109l0.474-2.424 c0.046-0.236-0.082-0.472-0.305-0.561c-0.127-0.051-0.272-0.075-0.443-0.075C27.633,24.491,26.567,24.865,25.651,25.403z M33.188,24.941c-0.006-0.064-0.011-0.153-0.023-0.187c-0.029-0.085-0.033-0.189-0.017-0.272 c-0.634,0.491-1.219,0.972-1.763,1.468c-0.715,0.652-1.372,1.411-2.007,2.149c-0.292,0.34-0.584,0.677-0.884,1.009 c-0.116,0.128-0.289,0.186-0.46,0.156l-0.333-0.06c-0.132-0.024-0.249-0.1-0.324-0.21c-0.076-0.11-0.104-0.247-0.078-0.378 c-0.026,0.131,0.002,0.268,0.078,0.378c0.075,0.11,0.192,0.186,0.324,0.21l0.333,0.06c0.171,0.03,0.344-0.029,0.46-0.157 c0.3-0.332,0.592-0.671,0.884-1.011c0.635-0.738,1.292-1.501,2.007-2.153c0.544-0.496,1.129-0.986,1.763-1.477 c-0.016,0.083-0.012,0.171,0.017,0.256c0.012,0.034,0.017,0.09,0.023,0.154c0.007,0.07,0.016,0.208,0.034,0.336 C33.206,25.109,33.193,25.007,33.188,24.941z M33.829,25.85c-0.18,0-0.337-0.283-0.398-0.463l-0.18-0.6 c-0.022-0.067-0.027-0.138-0.021-0.209c0.002,0.047,0.005,0.095,0.021,0.142l0.18,0.533c0.062,0.181,0.218,0.302,0.398,0.33 c0.05,0.008,0.102,0.008,0.155,0.001l-0.146,0.133C33.781,25.728,33.882,25.85,33.829,25.85z M34.623,25.123 c-0.084,0.078-0.12,0.196-0.131,0.329l-0.096,0.014C34.414,25.318,34.5,25.202,34.623,25.123z M34.463,26.388 c0.001,0,0.002-0.001,0.002-0.001c0.031,0.077,0.062,0.155,0.093,0.232c0.74-0.086,1.478-0.171,2.472-0.286l0,0 c-0.994,0.115-1.734,0.201-2.473,0.287C34.526,26.542,34.496,26.465,34.463,26.388z M38.436,27.85 c0.001,0,0.001-0.001,0.002-0.001v0.001C38.437,27.85,38.436,27.85,38.436,27.85z M38.179,27.298 c-0.029-0.075-0.057-0.15-0.086-0.224c-0.738,0.148-1.475,0.297-2.213,0.445c-0.031-0.111-0.061-0.222-0.092-0.333l0,0 c0.031,0.111,0.061,0.222,0.091,0.333c0.738-0.148,1.475-0.297,2.213-0.445C38.122,27.149,38.149,27.223,38.179,27.298 L38.179,27.298z M37.257,28.145c-0.108-0.036-0.219-0.08-0.333-0.134l0,0C37.039,28.065,37.149,28.11,37.257,28.145z M36.438,27.85c-0.004,0-0.006,0.033-0.007,0.069l-0.452,0.091c-0.066,0.014-0.132,0.013-0.195,0c0.003-0.001,0.005,0.001,0.008,0 l0.27-0.126V27.85H36.438z M35.979,25.958c0-0.001,0-0.002,0-0.003l0.996-0.117c0.075-0.008,0.146,0.006,0.215,0.029 c-0.046-0.013-0.096-0.018-0.151-0.012l-0.977,0.106c0-0.002,0-0.003,0-0.005L35.979,25.958z M35.311,27.035L35.311,27.035 l-0.695,0.081l0,0L35.311,27.035z M34.616,27.122l0.694-0.082l0,0L34.616,27.122z M35.399,27.661c0-0.002-0.002-0.004-0.002-0.006 l-0.092-0.333l0,0l0.027,0.097l0.065,0.235c0,0,0,0,0,0.001l0,0c0,0.001,0.001,0.002,0.002,0.004 c0.001,0.003,0.001,0.004,0.002,0.007C35.401,27.663,35.4,27.662,35.399,27.661z M35.979,28.016 c-0.071,0.015-0.141,0.01-0.208-0.006c0.004-0.001,0.007,0.001,0.011,0c0.063,0.013,0.13,0.015,0.197,0.001l0.452-0.091 c0,0.004,0,0.006,0,0.01L35.979,28.016z M39.967,28.279c-0.577,0.249-1.175,0.542-1.869,0.563 c-0.026,0.001-0.051,0.008-0.077,0.008c-0.447,0-0.874-0.141-1.308-0.348c-0.019-0.009-0.029-0.031-0.047-0.043 c0.017,0.012,0.026,0.034,0.044,0.043c-0.168-0.08-0.277-0.267-0.284-0.453c0-0.005,0.001-0.011,0.001-0.016 c0,0.002,0.002,0.004,0.002,0.006c0-0.009,0.001-0.02,0.001-0.027c0.009,0.184,0.116,0.359,0.282,0.438 c0.434,0.207,0.861,0.313,1.308,0.313c0.728,0,1.354-0.265,1.951-0.524c0.103-0.044,0.232-0.088,0.366-0.13 C40.215,28.167,40.094,28.225,39.967,28.279z M41.206,28.888c-0.015-0.038-0.039-0.073-0.044-0.114l-0.108-0.908 c0.001-0.002,0.007-0.005,0.007-0.008l0.105,0.916c0.009,0.073,0.039,0.14,0.076,0.201C41.223,28.949,41.219,28.916,41.206,28.888 z M41.053,27.864L41.053,27.864c0.001-0.003,0.007-0.006,0.007-0.008l0,0C41.06,27.858,41.055,27.861,41.053,27.864z M47.607,29.657l-0.018-0.005c0.095-0.019,0.189-0.045,0.283-0.072C47.785,29.604,47.696,29.64,47.607,29.657z M49.062,25.866 c0,0.103-0.155,0.198-0.098,0.276l-0.979,0.221l-0.291,0.007c-0.203,0.051-0.633,0.222-0.633,0.43v0.05h0.208 c-0.023,0,0.189,0.383,0.375,0.477l0.923,0.275c-0.103,0.109-0.127,0.248-0.105,0.248h0.013h0.007c0,0,0.01,0.161,0.01,0.165 c0.007,0.043,0.024,0.16,0.041,0.199c0.002,0.006,0.003,0.052,0.006,0.058v0.019c0.003,0.006,0.003,0.022,0.006,0.027 c-0.168,0.046-0.332,0.108-0.494,0.164c-0.209,0.072-0.419,0.149-0.631,0.189l-0.019-0.005c0.207-0.041,0.41-0.112,0.611-0.183 c0.172-0.061,0.347-0.127,0.527-0.175l0,0c-0.166,0.046-0.328,0.083-0.488,0.138c-0.209,0.072-0.419,0.108-0.631,0.148 l-0.314-0.017c-0.022,0.004-0.045,0.005-0.067,0.009l-0.007-0.002c-0.531,0.102-1.072,0.168-1.612,0.208 c-0.288,0.021-0.571,0.021-0.857,0.03c-0.256,0.01-0.514,0.028-0.766,0.028c-0.001,0-0.002,0-0.004,0l-0.138,0.151 c-0.099-0.003-0.213-0.031-0.323-0.052c-0.256-0.07-0.534-0.205-0.807-0.377c-0.136-0.086-0.271-0.133-0.407-0.211l-0.132-1.086 l-0.006-0.049c-0.03-0.25-0.251-0.429-0.504-0.431c-0.709,0-1.318,0.268-1.907,0.524c-0.137,0.059-0.271,0.125-0.405,0.189 c-0.046,0.018-0.093,0.039-0.139,0.056c0.042-0.015,0.084-0.034,0.126-0.05c-0.191,0.092-0.38,0.174-0.569,0.229 c0.01-0.016,0.018-0.037,0.027-0.057c0.138-0.036,0.277-0.072,0.417-0.122c-0.139,0.049-0.277,0.084-0.415,0.119 c0.046-0.101,0.068-0.223,0.061-0.343c0.007-0.075,0.003-0.151-0.027-0.226l-0.085-0.22c-0.001-0.003-0.003-0.004-0.005-0.007 c0.001,0.002,0.003,0.004,0.004,0.006l0.086,0.224c0.028,0.072,0.032,0.146,0.026,0.218c-0.004-0.056-0.009-0.113-0.026-0.157 l-0.086-0.255c-0.001-0.002-0.003-0.019-0.004-0.021c-0.091-0.223-0.371-0.35-0.605-0.303l-0.051,0.003l0.051-0.01l0,0 l-0.051,0.01l-0.177,0.009l-0.458,0.062c0.033-0.123-0.203-0.282-0.203-0.383c0-0.003,0-0.011,0-0.016 c0-0.018,0.225-0.035,0.221-0.053c0.004,0.016,0.107,0.031,0.11,0.047c0-0.025,0.058-0.057,0.052-0.072 c-0.039-0.104-0.069-0.192-0.143-0.253c0.074,0.055,0.15,0.127,0.185,0.218c0.007,0.02,0.005,0.04,0.01,0.06 c-0.005-0.021,0.008-0.043,0-0.063c-0.081-0.215-0.297-0.348-0.524-0.321l-0.996,0.115c0.002-0.039-0.023-0.079-0.026-0.119 c-0.001-0.016-0.011-0.031-0.017-0.046c3.109-0.69,6.49-0.919,9.956-1.048c0-0.001,0.172,0.046,0.172,0.09 c0-0.001,0-0.006,0-0.006c0,0.051-0.266,0.058-0.307,0.093c-0.203,0.064-0.271,0.232-0.271,0.456c0,0.276-0.422,0.489,0.578,0.49 V25.85h3C49.062,25.855,49.062,25.861,49.062,25.866z M82.438,39.266c0.089,0.027,0.172,0.101,0.235,0.175 c0.001,0.001,0.002,0.016,0.004,0.017c0.07,0.085,0.109,0.196,0.115,0.301c0,0.002-0.001,0.003-0.001,0.005 c-0.007-0.104-0.044-0.207-0.114-0.291c-0.002-0.001-0.003-0.001-0.004-0.002c-0.062-0.075-0.146-0.118-0.235-0.145 c-0.009-0.003-0.018-0.044-0.026-0.091C82.419,39.249,82.429,39.263,82.438,39.266z M79.139,38.85c0.004,0,0.008,0,0.012,0 c0.332,0.346,0.642,0.627,0.964,0.829C79.789,39.48,79.475,39.199,79.139,38.85z M80.425,39.85h-0.363v0.245 c0,0.004-0.016,0.027-0.023,0.043c-0.285-0.158-0.558-0.336-0.818-0.525c-0.119-0.085-0.239-0.172-0.362-0.256 c0.124,0.084,0.244-0.073,0.362,0.012C79.597,39.642,79.982,39.85,80.425,39.85z M80.928,39.534 c0.012-0.017,0.019-0.052,0.027-0.079c0.03,0.007,0.06,0.016,0.088,0.022c0.014,0.003,0.026-0.005,0.039-0.004 c-0.001,0.003-0.001,0.005-0.002,0.008c-0.013,0.055-0.019,0.107-0.019,0.095v0.274c0,0-0.229,0-0.229,0 C80.869,39.85,80.901,39.573,80.928,39.534z M77.923,37.397c0.498,0.283,0.994,0.585,1.488,0.866 c0.193,0.11,0.42,0.075,0.62,0.174c0.188,0.094,0.359,0.413,0.486,0.413c-0.003,0-0.006,0-0.01,0 c-0.126,0-0.293-0.291-0.477-0.382c-0.2-0.099-0.428-0.08-0.62-0.19c-0.848-0.483-1.699-0.927-2.562-1.357 C77.204,37.082,77.563,37.248,77.923,37.397z M70.303,27.759c0.006,0.005,0.011-0.033,0.016-0.057 c-0.005,0.039-0.01,0.116-0.016,0.111c-0.084-0.072-0.192,0.026-0.31,0.035C70.111,27.838,70.219,27.687,70.303,27.759z M67.062,26.918v-0.003c0,0.035,0.09,0.07,0.117,0.117c0.235-0.021,0.482-0.041,0.734-0.057c0.225-0.01,0.254,0.129,0.323,0.348 c0.009,0.027-0.175,0.225-0.175,0.253c0,0.001,0,0.006,0,0.007l1.699,0.267l-1.416-0.214c0.004,0.083,0.103,0.214,0.099,0.214 h-0.382c0,0,0-0.17,0-0.267l0.377,0.053c-0.001-0.025-0.002-0.043-0.002-0.053l-0.326-0.057c-0.027,0.021-0.049,0.04-0.049,0.05 c0-0.034,0-0.059,0-0.059l0.049,0.009c0.055-0.044,0.135-0.1,0.129-0.119c-0.069-0.219-0.191-0.4-0.414-0.391 c-0.252,0.016-0.448,0.014-0.683,0.035c-0.027-0.047-0.044-0.094-0.084-0.13c-0.012-0.01-0.015-0.024-0.023-0.035 c0.002,0.002-0.005,0.001-0.002,0.003C67.046,26.899,67.062,26.906,67.062,26.918z M66.674,26.85v-0.036 c0.003,0,0.005-0.019,0.007-0.02c-0.002,0-0.003,0.022-0.006,0.022c0.035-0.005,0.071,0.005,0.106,0.016 C66.746,26.84,66.71,26.849,66.674,26.85z M66.281,24.407c-0.011,0.08,0.143,0.159,0.131,0.239 c0.072,0.02,0.208,0.041,0.337,0.062l-0.01,0.077c-0.002-0.001-0.004-0.001-0.006-0.002l-0.001,0.005 c-0.161-0.048-0.323-0.097-0.485-0.142C66.258,24.566,66.27,24.486,66.281,24.407z M66.499,26.84L66.499,26.84 c0.043-0.028,0.092-0.04,0.142-0.05c-0.003,0.001-0.008,0.003-0.011,0.004c0.007-0.001,0.012-0.005,0.019-0.006 c-0.058,0.011-0.113,0.028-0.164,0.062c0.045-0.031,0.096-0.044,0.146-0.056C66.584,26.805,66.54,26.814,66.499,26.84z M66.062,26.678c0.006,0.071,0.008,0.118,0.008,0.145c-0.003,0-0.006,0-0.008,0C66.062,26.794,66.062,26.741,66.062,26.678z M67.407,29.544c0.136-0.065,0.227-0.186,0.264-0.323c0.518-0.12,1.032-0.226,1.545-0.303c-0.014,0.002-0.026,0.004-0.041,0.006 l0.75-0.139l0.253-0.031c0.485-0.069,0.973-0.127,1.446-0.203c1.422-0.226,2.795-0.509,4.14-1.07 c0.102-0.043,0.188-0.094,0.283-0.141c0.136-0.066,0.277-0.127,0.4-0.202c0.109-0.067,0.205-0.132,0.306-0.207 c0.025-0.018,0.05-0.04,0.074-0.057c0.021-0.017,0.042-0.035,0.064-0.05c0.049-0.018,0.1-0.026,0.148-0.047 c-0.003,0.003-0.007,0.07-0.01,0.07c0,0,0.001,0,0.002,0c-0.087,0-0.186,0.068-0.278,0.136c-0.101,0.075-0.195,0.122-0.305,0.189 c-0.123,0.075-0.265,0.12-0.4,0.187c-0.095,0.047-0.18,0.092-0.281,0.135c-1.345,0.561-2.714,0.845-4.137,1.071 c-0.474,0.075-0.953,0.142-1.439,0.211l-0.976,0.141c-0.513,0.077-1.027,0.182-1.545,0.302 C67.633,29.359,67.542,29.48,67.407,29.544l-1.399,0.667c0,0,0,0-0.001,0L67.407,29.544z M66.588,30.85L66.588,30.85 c-0.001,0-0.001,0-0.002,0C66.587,30.85,66.588,30.85,66.588,30.85z M65.992,26.794c-0.004,0.007-0.001,0.015-0.003,0.022 c-0.005,0.012-0.01,0.023-0.018,0.034C65.984,26.833,65.981,26.813,65.992,26.794z M65.748,25.898 C65.749,25.899,65.749,25.899,65.748,25.898c-0.052-0.019-0.095-0.048-0.17-0.048C65.652,25.85,65.695,25.879,65.748,25.898z M61.196,24.281c-0.021,0.088-0.029,0.181-0.026,0.279c-0.342,0.073-0.677,0.177-1.004,0.278 c-0.461,0.144-0.896,0.279-1.317,0.319c-0.032,0.003-0.063,0.009-0.094,0.018c0.461-0.62,1.109-0.923,1.968-0.923 c0.139,0,0.281,0.008,0.427,0.023C61.165,24.278,61.181,24.279,61.196,24.281z M60.161,23.294v0.005 c-0.193,0.027-0.38,0.066-0.558,0.121c0-0.003-0.003-0.006-0.003-0.01C59.78,23.355,59.966,23.321,60.161,23.294z M49.334,27.85 c2.772,0,5.544-1.462,8.311-2.289c0.152-0.046,0.318-0.112,0.392-0.256c0.425-0.839,1.039-1.278,1.783-1.482 c0.012,0.008,0.018,0.022,0.031,0.029c-0.76,0.2-1.384,0.683-1.813,1.533c-0.073,0.144-0.239,0.129-0.392,0.175 c-2.767,0.828-5.537,2.29-8.31,2.29C49.335,27.85,49.335,27.85,49.334,27.85z M59.935,31.917 c-0.101,0.042-0.252,0.052-0.429,0.046c-0.18-0.009-0.383-0.035-0.588-0.064c-0.021-0.003-0.045-0.006-0.066-0.009l0.055-0.104 c0.083-0.155,0.078-0.341-0.013-0.492c-0.072-0.119-0.194-0.186-0.326-0.215c-0.077-0.072-0.165-0.125-0.257-0.125l-0.157-0.104 c-0.006,0-0.012,0-0.018,0c-0.088,0-0.167,0.117-0.238,0.147c-0.072,0.029-0.144,0.054-0.214,0.078 c-0.032,0.008-0.063,0.007-0.097,0.02c-0.024,0.01-0.039,0.013-0.061,0.022c-0.077,0.018-0.155,0.036-0.234,0.033 c-0.058,0.014-0.11,0.021-0.165,0.022c-0.08-0.01-0.158-0.017-0.244-0.04c-0.055-0.017-0.112-0.037-0.183-0.067 c-0.004-0.001-0.008-0.003-0.012-0.005c-0.089-0.039-0.193-0.089-0.317-0.151c-0.219-0.108-0.433-0.101-0.882-0.035 c-0.119,0.017-0.26,0.05-0.43,0.068V30.41c0-0.312-0.311-0.55-0.604-0.489c-0.13,0.006-0.303,0.033-0.534,0.138 c-0.174,0.079-0.34,0.161-0.5,0.239c-0.5,0.245-0.904,0.409-1.33,0.42c-0.126-0.023-0.262-0.064-0.42-0.131 c-0.489-0.209-0.968-0.447-1.478-0.703l0.309-0.169c0.13-0.072,0.223-0.197,0.25-0.343c0.028-0.146-0.009-0.296-0.103-0.412 c-0.168-0.207-0.353-0.37-0.549-0.49c2.564-0.749,5.128-1.501,7.688-2.268c0.229-0.069,0.458-0.24,0.608-0.447 c0.001,0.062,0.002,0.154,0.004,0.245c0.009,0.419,0.015,0.85,0.51,0.85h0.265c-0.275,0-0.5,0.224-0.5,0.5s0.225,0.5,0.5,0.5 h4.731l-0.075,0.093c-0.062,0.079-0.098,0.173-0.106,0.27c-0.011,0.096,0.006,0.194,0.051,0.283 c0.09,0.176,0.282,0.279,0.474,0.271l0.531-0.031c-0.024,0.013-0.042,0.036-0.064,0.053c-0.022,0.019-0.05,0.034-0.069,0.059 c-0.021,0.023-0.033,0.053-0.049,0.079c-0.019,0.03-0.038,0.056-0.053,0.089c-0.014,0.033-0.02,0.068-0.028,0.102 c-0.009,0.03-0.021,0.059-0.024,0.09c-0.009,0.066-0.01,0.131,0,0.191c0,0.004,0.004,0.006,0.004,0.01 c0.026,0.133,0.102,0.247,0.206,0.318C63.144,30.471,61.541,31.229,59.935,31.917z M68.16,32.234 c-0.101,0.086-0.164,0.209-0.175,0.341l-0.031,0.379c-0.009,0.106,0.017,0.212,0.071,0.303c-1.771-0.016-3.301,0.156-4.708,0.555 c1.183-1.145,2.822-1.796,4.552-1.796c0.517,0,1.03,0.059,1.528,0.173l-0.872-0.072C68.392,32.102,68.262,32.148,68.16,32.234z M71.5,38.801c0.024-0.13,0.107-0.289,0.269-0.487C71.608,38.513,71.525,38.671,71.5,38.801z M78.607,40.698 c-0.033,0.03-0.058,0.062-0.08,0.099c-0.026,0.041-0.011,0.101-0.024,0.149c-0.016,0.056-0.04,0.111-0.035,0.171 c-0.29,0.002-0.58,0.008-0.871,0.02l-0.187,0.004c-1.5,0-2.756-0.8-4.044-1.621c-0.274-0.175-0.557-0.356-0.879-0.487 l-0.127-0.051c-0.095-0.038-0.233-0.093-0.322-0.141c-0.003,0.005-0.011,0.015-0.013,0.019l0,0 c0.002-0.004,0.011-0.014,0.013-0.019l0,0c0.025-0.042,0.058-0.094,0.119-0.17c0.06-0.074,0.09-0.163,0.101-0.255 c0.018-0.08,0.015-0.164-0.01-0.245c-0.048-0.159-0.171-0.284-0.33-0.333c-0.303-0.094-0.594-0.178-0.876-0.255 c0.021-0.043,0.032-0.086,0.044-0.129c0.006-0.02,0.017-0.039,0.021-0.058c0.014-0.063,0.021-0.119,0.026-0.16l0.015-0.103 c0.057-0.248-0.082-0.5-0.322-0.584c-0.479-0.167-0.958-0.355-1.44-0.543c-0.277-0.109-0.557-0.217-0.837-0.323 c0.272-0.213,0.642-0.309,1.164-0.309l0.208,0.005c3.264,0.147,5.989,1.506,8.922,3.166c-0.068,0.051-0.116,0.126-0.152,0.207 c-0.005,0.012-0.019,0.018-0.023,0.03c-0.019,0.053-0.026,0.108-0.026,0.162c-0.001,0.162,0.077,0.319,0.218,0.414 c0.123,0.084,0.242,0.17,0.359,0.256c0.263,0.189,0.535,0.367,0.821,0.525c-0.022,0.044-0.064,0.106-0.156,0.114 c-0.412,0.037-0.749,0.135-1.18,0.299C78.643,40.575,78.653,40.656,78.607,40.698z M80.557,41.3 c-0.494-0.068-0.989-0.136-1.586-0.218c0.001-0.001,0.003-0.001,0.004-0.001C79.571,41.162,80.064,41.231,80.557,41.3 c0.008,0.109,0.016,0.219,0.023,0.329C80.573,41.519,80.565,41.409,80.557,41.3z M83.635,40.017 c-0.186,0.098-0.364,0.199-0.558,0.293c-0.238,0.116-0.488,0.23-0.736,0.344c-0.101,0.046-0.196,0.093-0.299,0.139l0.001-0.001 c0.103-0.046,0.198-0.092,0.298-0.138c0.249-0.114,0.498-0.228,0.736-0.344C83.27,40.216,83.45,40.115,83.635,40.017 c0.152-0.081,0.312-0.158,0.46-0.244c0.22-0.128,0.423-0.273,0.628-0.416c-0.205,0.143-0.408,0.288-0.628,0.416 C83.948,39.859,83.788,39.936,83.635,40.017z M91.93,52.583l-0.605-0.501c-0.187-0.152-0.456-0.151-0.64,0.003 c-0.186,0.155-0.232,0.421-0.113,0.631c0.467,0.821,0.214,1.181-0.255,1.702c-0.114-0.028-0.236-0.017-0.345,0.036l-0.471,0.232 c0.023-0.094,0.046-0.188,0.069-0.28c0.245-0.986,0.481-1.939,0.676-2.903c0.285-1.406-0.525-2.801-2.116-3.638 c-0.748-0.394-1.395-1.004-2.08-1.65c-0.212-0.2-0.423-0.399-0.637-0.591c-0.219-0.197-0.423-0.421-0.64-0.671 c0.062,0.02,0.128,0.041,0.192,0.062c0.467,0.152,1.009,0.288,1.488,0.143c0.165-0.051,0.292-0.184,0.336-0.352 c0.043-0.167-0.002-0.346-0.122-0.471c-0.116-0.123-0.243-0.243-0.37-0.363c-0.261-0.248-0.508-0.481-0.665-0.743 c-0.006-0.01-0.012-0.02-0.017-0.03c0.024,0.002,0.05,0.006,0.076,0.011c0.542,0.095,1.08,0.208,1.618,0.32 c0.356,0.075,0.714,0.149,1.07,0.219c0.153,0.03,0.331-0.011,0.457-0.05c0.045-0.014,0.101-0.03,0.166-0.046 c0.198-0.047,0.349-0.209,0.378-0.41c0.023-0.148-0.021-0.296-0.116-0.405c1.864,0.153,3.461,1.608,3.781,3.504 C93.496,48.972,93.15,50.905,91.93,52.583z"/> <path d="M76.825,26.878c-0.024,0.017-0.048,0.039-0.072,0.056C76.778,26.917,76.802,26.898,76.825,26.878z"/> <path d="M76.891,26.85c-0.001,0-0.001,0-0.002,0c-0.021,0-0.041,0.012-0.062,0.026c-0.001,0.001-0.001,0.001-0.002,0.002 C76.847,26.863,76.869,26.85,76.891,26.85z"/> <path d="M9.4,49.857c-0.435,0.417-0.616,0.986-0.496,1.562c0.209,1.009,0.481,1.986,0.769,3.023c0.124,0.445,0.25,0.9,0.374,1.367 c0.048,0.181,0.192,0.318,0.375,0.359c0.036,0.009,0.073,0.013,0.109,0.013c0.146,0,0.287-0.063,0.383-0.179l0.607-0.717 c0.39-0.457,0.731-0.857,1.058-1.27c0.735-0.925,0.982-2.046,0.66-2.999c-0.279-0.826-0.955-1.431-1.854-1.657 C10.668,49.179,9.909,49.37,9.4,49.857z"/> <path d="M7.756,73.162c0.01,0.184,0.123,0.331,0.275,0.409c0.008,0.048,0.016,0.098,0.027,0.129 c0.062,0.027,0.128,0.15,0.197,0.15l0,0c0.003,0,0.007,0,0.011,0s0.007,0,0.011,0c0.066,0,0.129-0.127,0.186-0.153 c0.012-0.037,0.021-0.086,0.029-0.132c0.159-0.089,0.27-0.252,0.263-0.445c-0.028-0.826-0.091-1.655-0.193-2.524 c-0.167-1.734-0.396-3.448-0.618-5.106l-0.096-0.671c-0.204-1.37-0.396-2.664,0.19-3.927c0.671-1.447,0.756-3.061,0.266-5.073 c-0.193-0.791-0.366-1.587-0.533-2.384c0.052-0.005,0.103-0.02,0.153-0.04c0.225-0.099,0.345-0.344,0.284-0.581 c-0.701-2.752,0.169-4.448,2.738-5.34c0.237-0.082,0.376-0.328,0.326-0.573c-0.05-0.245-0.277-0.409-0.524-0.399 c-1.605,0.11-2.984,1.019-3.69,2.429c-0.277,0.554-0.428,1.144-0.454,1.735l-0.221,0.055c-0.265,0.062-0.43,0.327-0.372,0.594 c0.094,0.427,0.192,0.854,0.291,1.28c0.213,0.925,0.434,1.882,0.602,2.824c0.304,1.709,0.618,3.479-0.221,5.203 c-0.387,0.797-0.803,1.819-0.59,2.668c0.688,2.747,1.201,5.06,1.475,7.402C7.646,71.513,7.713,72.335,7.756,73.162z M8.506,73.374 c0,0.002-0.002,0.008-0.002,0.01c-0.028-0.814-0.091-1.884-0.191-2.741C8.416,71.516,8.479,72.555,8.506,73.374z"/> <path d="M68.216,66.659c-3.405,2.739-5.76,5.815-7.196,9.405c-0.083,0.208-0.019,0.447,0.161,0.583 c0.09,0.068,0.195,0.103,0.303,0.103c0.105,0,0.213-0.033,0.302-0.102c1.765-1.341,2.858-3.181,3.915-4.959 c0.942-1.586,1.832-3.084,3.162-4.269c0.203-0.18,0.225-0.488,0.049-0.695C68.736,66.52,68.429,66.487,68.216,66.659z"/> <path d="M76.048,27.345c-0.095,0.047-0.18,0.101-0.281,0.143c-1.345,0.561-2.713,0.849-4.136,1.075 c1.423-0.226,2.792-0.514,4.137-1.075C75.869,27.446,75.954,27.392,76.048,27.345z"/> <path d="M37.995,26.584l-0.043,0.009c0.233-0.047,0.514,0.073,0.605,0.296C38.465,26.665,38.23,26.533,37.995,26.584z"/> <path d="M19.612,26.178c-0.003,0.148,0.012,0.295,0.056,0.441c0.041,0.138,0.071,0.271,0.09,0.401 c-0.019-0.143-0.047-0.29-0.093-0.441C19.626,26.448,19.613,26.313,19.612,26.178z"/> <path d="M63.042,81.639l0.104-0.229c-0.621-0.282-1.303-0.39-1.962-0.493l-0.266-0.042c-0.152-0.024-0.321-0.1-0.485-0.19 c-0.001,0-0.001-0.001-0.002-0.001c-0.011-0.106-0.019-0.219-0.042-0.323c-0.809-3.625-1.108-7.972-2.299-11.822 c-0.018,0.189-0.034,0.376-0.063,0.566c0.029-0.19,0.046-0.38,0.063-0.569c-0.025-0.083-0.046-0.169-0.071-0.252l0,0 c0.025,0.083,0.047,0.169,0.071,0.252c0.189-1.992-0.233-3.912-0.734-5.86c-0.409-1.596-1.991-1.933-3.038-2.155 c-1.126-0.24-2.256-0.458-3.386-0.681c-4.833-2.298-10.576-2.24-15.824-2.91c0.049-0.236,0.25-0.691,0.35-0.912 c0.444-0.985,0.566-1.702,0.383-2.255c-0.285-0.861-0.698-1.678-1.097-2.464c-0.206-0.405-0.411-0.811-0.599-1.223 c-0.2-0.437-0.216-0.59-0.24-0.59l0,0c0.038-0.024,0.176-0.084,0.65-0.134c1.549-0.165,2.961,0.324,4.459,0.841l0.695,0.237 c0.606,0.202,1.221,0.376,1.837,0.549l0.832,0.237c0.166,0.049,0.342,0.008,0.472-0.104c0.128-0.114,0.19-0.285,0.163-0.455 c-0.08-0.493-0.303-0.793-0.661-0.892c-0.749-0.208-1.505-0.471-2.237-0.724c-1.876-0.65-3.822-1.321-5.971-1.226 c-0.768,0.032-1.606-0.187-2.092-0.549c-0.62-0.463-1.148-1.088-1.708-1.751c-0.253-0.3-0.511-0.605-0.785-0.905 c-0.139-0.152-0.358-0.202-0.55-0.129c-0.192,0.075-0.319,0.26-0.319,0.466c0,0.078-0.007,0.149-0.013,0.215 c-0.017,0.197-0.037,0.419,0.081,0.641c0.704,1.328,1.419,2.65,2.153,3.962c1.086,1.939,1.49,3.507,1.312,5.083 c-0.246,2.167-1.683,3.534-3.537,5.098c-0.157,0.132-0.322,0.26-0.487,0.389c-0.521,0.405-1.06,0.825-1.419,1.397 c-0.432,0.688-1.182,1.146-2.059,1.262c-0.856,0.112-1.718-0.124-2.246-0.616c-0.803-0.746-1.634-1.464-2.44-2.159 c-0.344-0.296-0.684-0.59-1.015-0.879c-0.129-0.113-0.306-0.151-0.471-0.104c-0.164,0.049-0.292,0.178-0.339,0.343l-1.115,3.909 c-0.068,0.239,0.05,0.493,0.278,0.594c0.227,0.103,0.495,0.021,0.627-0.192c0.323-0.518,0.628-0.481,1.425-0.24 c0.544,0.163,1.26,0.379,1.873-0.039l1.601,0.901l-0.226,0.401c-0.955,1.702-1.917,3.416-2.896,5.124 c-0.064-0.01-0.128-0.018-0.185-0.021c-0.182-0.021-0.343,0.066-0.444,0.21c-0.101,0.143-0.12,0.328-0.05,0.487 c0.519,1.192,0.467,2.897-0.133,4.344c-0.338,0.814-0.823,1.474-1.378,1.89l-0.322-3.827c-0.016-0.193-0.145-0.361-0.328-0.429 c-0.184-0.063-0.39-0.021-0.527,0.12c-0.974,0.992-1.275,2.216-0.894,3.637c0.26,0.967-0.206,1.636-0.746,2.411 c-0.091,0.131-0.183,0.262-0.271,0.395c-0.068-0.12-0.168-0.235-0.315-0.312c-0.358-0.184-0.706-0.002-0.913,0.107 c-0.047,0.024-0.092,0.053-0.128,0.063c-0.403,0.09-0.805,0.19-1.205,0.294c0.667-1.169,0.755-1.729,0.278-2.723 c-0.509-1.059-1.798-2.312-2.602-2.533c-0.181-0.047-0.372,0.006-0.499,0.143C8.99,74.43,8.95,74.625,9.013,74.801 c0.175,0.49,0.064,1.099-0.054,1.742c-0.176,0.963-0.389,2.13,0.46,3.086l-0.071,0.066l-1.525-2.221 c-0.119-0.173-0.331-0.255-0.536-0.201c-0.203,0.052-0.352,0.226-0.374,0.434c-0.165,1.617,1.407,3.394,3.432,3.877 c3.032,0.728,5.729-0.331,8.021-1.381c1.317-0.604,2.165-1.771,2.386-3.289c0.079-0.537,0.142-1.078,0.205-1.619 c0.12-1.031,0.245-2.101,0.483-3.107c0.937-3.97,3.414-6.687,7.164-7.856c4.433-1.383,9.089-1.255,13.838,0.381 c4.155,1.434,6.17,4.584,8.197,8.251c0.127,0.229,0.21,0.554,0.253,0.988c0.075,0.761,0.138,1.523,0.2,2.286 c0.065,0.807,0.132,1.613,0.214,2.418c0.187,1.831,0.667,4.501,2.679,6.541l0.178-0.175l0,0c0.048,0.048,0.112,0.074,0.178,0.074 c0.023,0,0.047-0.003,0.069-0.011c2.805-0.802,5.55-1.749,8.177-2.808c0.047,0.019,0.103,0.026,0.147,0.047l0.058-0.128 c0.081-0.033,0.164-0.062,0.244-0.096c0.092-0.038,0.153-0.127,0.155-0.228C63.191,81.771,63.132,81.68,63.042,81.639z M10.688,79.544c0.146-0.042,0.288-0.109,0.415-0.236c-0.126,0.126-0.064,0.193-0.21,0.236c-0.006,0.011,0.031,0.019,0.071,0.026 c-0.001,0.002-0.002,0.004-0.003,0.006c-0.056-0.008-0.114-0.016-0.115-0.024c-0.042,0.01-0.11,0.02-0.178,0.027 C10.672,79.568,10.68,79.558,10.688,79.544z M10.324,79.78c0.054-0.051,0.083-0.107,0.079-0.182c0-0.009-0.01,0-0.012-0.008 c0.084,0.004,0.166-0.02,0.249-0.038c0.002,0.01,0.005,0.019,0.008,0.028c-0.058,0.006-0.117,0.012-0.155,0.01 c0.001,0.009-0.04,0.013-0.039,0.021c0.004,0.074-0.051,0.146-0.104,0.196l-0.72,0.657c-0.017-0.009-0.035-0.012-0.052-0.021 L10.324,79.78z M10.518,80.741c-0.007-0.002-0.015-0.004-0.022-0.005c0.01,0.002,0.019,0.003,0.028,0.005 c0.456,0.109,0.92,0.116,1.388,0.113C11.441,80.857,10.975,80.851,10.518,80.741z M30.797,61.054 c0.154,0.262,0.353,0.498,0.598,0.69C31.15,61.552,30.952,61.315,30.797,61.054z M37.201,58.834 c-1.293-0.664-2.566-0.407-3.527,0.819c-0.044,0.056-0.053,0.104-0.041,0.174c-0.001-0.003-0.003-0.028-0.004-0.031 c-0.02-0.075-0.003-0.144,0.045-0.205c0.961-1.228,2.234-1.527,3.527-0.863c0.041-0.084,0.1,0.043,0.183-0.008l0.065,0.073 l-0.065-0.07C37.3,58.774,37.242,58.75,37.201,58.834z M57.996,70.231c-0.006-0.196-0.025-0.394-0.05-0.585 c0-0.001,0-0.004,0-0.005C57.971,69.835,57.991,70.033,57.996,70.231z M57.437,71.865l0.358,0.134 c0.19,0.07,0.31,0.247,0.319,0.442c-0.029-0.181-0.147-0.347-0.319-0.411l-0.368-0.153C57.431,71.873,57.434,71.868,57.437,71.865 z M57.203,69.731c-0.023-0.196,0.015-0.389,0.05-0.561c0.013-0.059,0.024-0.115,0.033-0.174c0.06-0.376,0.092-0.75,0.104-1.124 c-0.012,0.374-0.045,0.748-0.104,1.124c-0.009,0.059-0.021,0.115-0.033,0.174C57.217,69.343,57.178,69.535,57.203,69.731 L57.203,69.731z M55.088,72.686c-0.115,0.244-0.176,0.511-0.18,0.794c0.003-0.284,0.063-0.552,0.18-0.797 c0.209-0.439,0.597-0.775,1.09-0.949c0.782-0.277,1.044-0.653,1.068-1.283c-0.023,0.63-0.285,1.007-1.068,1.284 C55.685,71.909,55.297,72.246,55.088,72.686z M56.34,77.472c0.005-0.124-0.009-0.244-0.031-0.339 c-0.057-0.229-0.108-0.46-0.161-0.69c-0.012-0.051-0.023-0.076-0.035-0.127c0,0,0,0.001,0.001,0.001 c0.011,0.049,0.023,0.073,0.034,0.122c0.053,0.229,0.104,0.458,0.161,0.687C56.332,77.224,56.346,77.346,56.34,77.472z M55.805,77.621c-0.118,0.246-0.222,0.5-0.229,0.745c-0.021-0.258,0.097-0.517,0.229-0.794c0.02-0.041,0.029-0.093,0.033-0.148 C55.837,77.499,55.829,77.572,55.805,77.621z M56.084,78.513c-0.017-0.04-0.019-0.093-0.012-0.149 c-0.003,0.045-0.002,0.089,0.012,0.122c0.041,0.094,0.182,0.208,0.291,0.244C56.266,78.693,56.125,78.606,56.084,78.513z M56.699,75.321c-0.174,0.131-0.256,0.28-0.247,0.443c0-0.001-0.001-0.002-0.001-0.003c-0.01-0.164,0.073-0.312,0.248-0.443 c0.226-0.17,0.567-0.169,0.694-0.018c0.047,0.056,0.063,0.132,0.048,0.222c0,0,0,0,0,0.001c0.016-0.091-0.001-0.166-0.048-0.221 C57.266,75.15,56.924,75.151,56.699,75.321z M57.517,79.157c-0.052,0.061-0.129-0.111-0.204-0.107 c0.075-0.004,0.152,0.069,0.204,0.011c0.02-0.022,0.029-0.04,0.04-0.059C57.555,79.057,57.554,79.114,57.517,79.157z M57.571,78.948c0-0.004,0-0.008,0-0.012l0.001,0.006C57.573,78.944,57.571,78.946,57.571,78.948z M60.396,81.496 c-0.504-0.193-1.044-0.582-1.27-1.056c-0.178-0.378-0.398-0.755-0.611-1.12c-0.573-0.98-1.162-1.99-1.129-3.244 c-0.033,1.254,0.556,2.264,1.129,3.244c0.213,0.365,0.434,0.742,0.611,1.12C59.352,80.914,59.892,81.302,60.396,81.496 c0.016-0.083,0.031-0.165,0.04-0.25C60.427,81.33,60.412,81.413,60.396,81.496z"/> </g> </g> </g>
</svg>